<?xml version="1.0" encoding="UTF-8" standalone="no"?>
<!DOCTYPE svg PUBLIC "-//W3C//DTD SVG 1.1//EN"
 "http://www.w3.org/Graphics/SVG/1.1/DTD/svg11.dtd">
<!-- Generated by graphviz version 2.43.0 (0)
 -->
<!-- Title: KG Pages: 1 -->
<svg width="2287pt" height="630pt"
 viewBox="0.00 0.00 2286.50 630.34" xmlns="http://www.w3.org/2000/svg" xmlns:xlink="http://www.w3.org/1999/xlink">
<g id="graph0" class="graph" transform="scale(1 1) rotate(0) translate(4 626.34)">
<title>KG</title>
<polygon fill="white" stroke="transparent" points="-4,4 -4,-626.34 2282.5,-626.34 2282.5,4 -4,4"/>
<!-- myagv&#45;1 -->
<g id="node1" class="node">
<title>myagv&#45;1</title>
<polygon fill="#e3f2fd" stroke="#1e88e5" points="418.5,-619.84 358.5,-619.84 358.5,-583.84 418.5,-583.84 418.5,-619.84"/>
<text text-anchor="middle" x="388.5" y="-604.84" font-family="Helvetica,sans-Serif" font-size="10.00">myagv&#45;1</text>
<text text-anchor="middle" x="388.5" y="-593.84" font-family="Helvetica,sans-Serif" font-size="10.00">[Robot]</text>
</g>
<!-- myagv&#45;1&#45;&gt;myagv&#45;1 -->
<g id="edge1" class="edge">
<title>myagv&#45;1&#45;&gt;myagv&#45;1:camera</title>
<path fill="none" stroke="#555555" d="M418.5,-604.47C428.5,-604.47 436.5,-603.59 436.5,-601.84 436.5,-600.75 433.38,-599.99 428.59,-599.58"/>
<polygon fill="#555555" stroke="#555555" points="428.62,-596.08 418.5,-599.22 428.37,-603.08 428.62,-596.08"/>
<text text-anchor="middle" x="467" y="-599.64" font-family="Helvetica,sans-Serif" font-size="9.00">HAS_SENSOR</text>
</g>
<!-- myagv&#45;1&#45;&gt;myagv&#45;1 -->
<g id="edge2" class="edge">
<title>myagv&#45;1&#45;&gt;myagv&#45;1:imu</title>
<path fill="none" stroke="#555555" d="M418.56,-606.05C452.07,-608.3 497.5,-606.9 497.5,-601.84 497.5,-597.28 460.51,-595.69 428.67,-597.08"/>
<polygon fill="#555555" stroke="#555555" points="428.35,-593.59 418.56,-597.63 428.74,-600.58 428.35,-593.59"/>
<text text-anchor="middle" x="528" y="-599.64" font-family="Helvetica,sans-Serif" font-size="9.00">HAS_SENSOR</text>
</g>
<!-- myagv&#45;1&#45;&gt;myagv&#45;1 -->
<g id="edge3" class="edge">
<title>myagv&#45;1&#45;&gt;myagv&#45;1:lidar</title>
<path fill="none" stroke="#555555" d="M418.65,-607.05C469.65,-611.88 558.5,-610.15 558.5,-601.84 558.5,-594.05 480.41,-592.04 428.63,-595.8"/>
<polygon fill="#555555" stroke="#555555" points="428.33,-592.32 418.65,-596.63 428.91,-599.29 428.33,-592.32"/>
<text text-anchor="middle" x="589" y="-599.64" font-family="Helvetica,sans-Serif" font-size="9.00">HAS_SENSOR</text>
</g>
<!-- r1&#45;preprocess -->
<g id="node13" class="node">
<title>r1&#45;preprocess</title>
<polygon fill="#fff4e5" stroke="#f29900" points="508,-532.84 425,-532.84 425,-496.84 508,-496.84 508,-532.84"/>
<text text-anchor="middle" x="466.5" y="-517.84" font-family="Helvetica,sans-Serif" font-size="10.00">r1&#45;preprocess</text>
<text text-anchor="middle" x="466.5" y="-506.84" font-family="Helvetica,sans-Serif" font-size="10.00">[Preprocess]</text>
</g>
<!-- myagv&#45;1&#45;&gt;r1&#45;preprocess -->
<g id="edge10" class="edge">
<title>myagv&#45;1:camera&#45;&gt;r1&#45;preprocess</title>
<path fill="none" stroke="#555555" d="M376.66,-583.49C371.75,-573.98 368.46,-562.33 374.5,-553.34 377.24,-549.26 395.77,-541.38 415.49,-533.9"/>
<polygon fill="#555555" stroke="#555555" points="416.75,-537.16 424.89,-530.39 414.3,-530.61 416.75,-537.16"/>
<text text-anchor="middle" x="390" y="-556.14" font-family="Helvetica,sans-Serif" font-size="9.00">FEEDS</text>
</g>
<!-- myagv&#45;1&#45;&gt;r1&#45;preprocess -->
<g id="edge11" class="edge">
<title>myagv&#45;1:imu&#45;&gt;r1&#45;preprocess</title>
<path fill="none" stroke="#555555" d="M402.2,-583.81C409.76,-574.61 419.43,-563.16 428.5,-553.34 432.53,-548.98 436.92,-544.45 441.24,-540.12"/>
<polygon fill="#555555" stroke="#555555" points="443.73,-542.58 448.37,-533.06 438.8,-537.61 443.73,-542.58"/>
<text text-anchor="middle" x="444" y="-556.14" font-family="Helvetica,sans-Serif" font-size="9.00">FEEDS</text>
</g>
<!-- myagv&#45;1&#45;&gt;r1&#45;preprocess -->
<g id="edge12" class="edge">
<title>myagv&#45;1:lidar&#45;&gt;r1&#45;preprocess</title>
<path fill="none" stroke="#555555" d="M418.78,-592.04C433.37,-586.24 449.76,-577.11 459.5,-563.34 463.64,-557.49 465.79,-550.21 466.82,-543.12"/>
<polygon fill="#555555" stroke="#555555" points="470.31,-543.3 467.62,-533.06 463.33,-542.75 470.31,-543.3"/>
<text text-anchor="middle" x="479" y="-556.14" font-family="Helvetica,sans-Serif" font-size="9.00">FEEDS</text>
</g>
<!-- myagv&#45;2 -->
<g id="node2" class="node">
<title>myagv&#45;2</title>
<polygon fill="#e3f2fd" stroke="#1e88e5" points="733.5,-619.84 673.5,-619.84 673.5,-583.84 733.5,-583.84 733.5,-619.84"/>
<text text-anchor="middle" x="703.5" y="-604.84" font-family="Helvetica,sans-Serif" font-size="10.00">myagv&#45;2</text>
<text text-anchor="middle" x="703.5" y="-593.84" font-family="Helvetica,sans-Serif" font-size="10.00">[Robot]</text>
</g>
<!-- myagv&#45;2&#45;&gt;myagv&#45;2 -->
<g id="edge4" class="edge">
<title>myagv&#45;2&#45;&gt;myagv&#45;2:camera</title>
<path fill="none" stroke="#555555" d="M733.5,-604.47C743.5,-604.47 751.5,-603.59 751.5,-601.84 751.5,-600.75 748.38,-599.99 743.59,-599.58"/>
<polygon fill="#555555" stroke="#555555" points="743.62,-596.08 733.5,-599.22 743.37,-603.08 743.62,-596.08"/>
<text text-anchor="middle" x="782" y="-599.64" font-family="Helvetica,sans-Serif" font-size="9.00">HAS_SENSOR</text>
</g>
<!-- myagv&#45;2&#45;&gt;myagv&#45;2 -->
<g id="edge5" class="edge">
<title>myagv&#45;2&#45;&gt;myagv&#45;2:imu</title>
<path fill="none" stroke="#555555" d="M733.56,-606.05C767.07,-608.3 812.5,-606.9 812.5,-601.84 812.5,-597.28 775.51,-595.69 743.67,-597.08"/>
<polygon fill="#555555" stroke="#555555" points="743.35,-593.59 733.56,-597.63 743.74,-600.58 743.35,-593.59"/>
<text text-anchor="middle" x="843" y="-599.64" font-family="Helvetica,sans-Serif" font-size="9.00">HAS_SENSOR</text>
</g>
<!-- myagv&#45;2&#45;&gt;myagv&#45;2 -->
<g id="edge6" class="edge">
<title>myagv&#45;2&#45;&gt;myagv&#45;2:lidar</title>
<path fill="none" stroke="#555555" d="M733.65,-607.05C784.65,-611.88 873.5,-610.15 873.5,-601.84 873.5,-594.05 795.41,-592.04 743.63,-595.8"/>
<polygon fill="#555555" stroke="#555555" points="743.33,-592.32 733.65,-596.63 743.91,-599.29 743.33,-592.32"/>
<text text-anchor="middle" x="904" y="-599.64" font-family="Helvetica,sans-Serif" font-size="9.00">HAS_SENSOR</text>
</g>
<!-- r2&#45;preprocess -->
<g id="node14" class="node">
<title>r2&#45;preprocess</title>
<polygon fill="#fff4e5" stroke="#f29900" points="745,-532.84 662,-532.84 662,-496.84 745,-496.84 745,-532.84"/>
<text text-anchor="middle" x="703.5" y="-517.84" font-family="Helvetica,sans-Serif" font-size="10.00">r2&#45;preprocess</text>
<text text-anchor="middle" x="703.5" y="-506.84" font-family="Helvetica,sans-Serif" font-size="10.00">[Preprocess]</text>
</g>
<!-- myagv&#45;2&#45;&gt;r2&#45;preprocess -->
<g id="edge13" class="edge">
<title>myagv&#45;2:camera&#45;&gt;r2&#45;preprocess</title>
<path fill="none" stroke="#555555" d="M673.38,-586.65C664.35,-580.79 655.52,-573.05 650.5,-563.34 648.46,-559.39 648.46,-557.29 650.5,-553.34 653.22,-548.08 657.06,-543.4 661.44,-539.29"/>
<polygon fill="#555555" stroke="#555555" points="663.72,-541.94 669.22,-532.89 659.27,-536.54 663.72,-541.94"/>
<text text-anchor="middle" x="666" y="-556.14" font-family="Helvetica,sans-Serif" font-size="9.00">FEEDS</text>
</g>
<!-- myagv&#45;2&#45;&gt;r2&#45;preprocess -->
<g id="edge14" class="edge">
<title>myagv&#45;2:imu&#45;&gt;r2&#45;preprocess</title>
<path fill="none" stroke="#555555" d="M703.5,-583.64C703.5,-572 703.5,-556.39 703.5,-543.08"/>
<polygon fill="#555555" stroke="#555555" points="707,-543.02 703.5,-533.02 700,-543.02 707,-543.02"/>
<text text-anchor="middle" x="719" y="-556.14" font-family="Helvetica,sans-Serif" font-size="9.00">FEEDS</text>
</g>
<!-- myagv&#45;2&#45;&gt;r2&#45;preprocess -->
<g id="edge15" class="edge">
<title>myagv&#45;2:lidar&#45;&gt;r2&#45;preprocess</title>
<path fill="none" stroke="#555555" d="M722.72,-583.48C727.88,-577.65 732.78,-570.73 735.5,-563.34 738.31,-555.73 736.07,-548.15 731.73,-541.35"/>
<polygon fill="#555555" stroke="#555555" points="734.26,-538.9 725.32,-533.21 728.76,-543.23 734.26,-538.9"/>
<text text-anchor="middle" x="752" y="-556.14" font-family="Helvetica,sans-Serif" font-size="9.00">FEEDS</text>
</g>
<!-- myagv&#45;3 -->
<g id="node3" class="node">
<title>myagv&#45;3</title>
<polygon fill="#e3f2fd" stroke="#1e88e5" points="1048.5,-619.84 988.5,-619.84 988.5,-583.84 1048.5,-583.84 1048.5,-619.84"/>
<text text-anchor="middle" x="1018.5" y="-604.84" font-family="Helvetica,sans-Serif" font-size="10.00">myagv&#45;3</text>
<text text-anchor="middle" x="1018.5" y="-593.84" font-family="Helvetica,sans-Serif" font-size="10.00">[Robot]</text>
</g>
<!-- myagv&#45;3&#45;&gt;myagv&#45;3 -->
<g id="edge7" class="edge">
<title>myagv&#45;3&#45;&gt;myagv&#45;3:camera</title>
<path fill="none" stroke="#555555" d="M1048.5,-604.47C1058.5,-604.47 1066.5,-603.59 1066.5,-601.84 1066.5,-600.75 1063.38,-599.99 1058.59,-599.58"/>
<polygon fill="#555555" stroke="#555555" points="1058.62,-596.08 1048.5,-599.22 1058.37,-603.08 1058.62,-596.08"/>
<text text-anchor="middle" x="1097" y="-599.64" font-family="Helvetica,sans-Serif" font-size="9.00">HAS_SENSOR</text>
</g>
<!-- myagv&#45;3&#45;&gt;myagv&#45;3 -->
<g id="edge8" class="edge">
<title>myagv&#45;3&#45;&gt;myagv&#45;3:imu</title>
<path fill="none" stroke="#555555" d="M1048.56,-606.05C1082.07,-608.3 1127.5,-606.9 1127.5,-601.84 1127.5,-597.28 1090.51,-595.69 1058.67,-597.08"/>
<polygon fill="#555555" stroke="#555555" points="1058.35,-593.59 1048.56,-597.63 1058.74,-600.58 1058.35,-593.59"/>
<text text-anchor="middle" x="1158" y="-599.64" font-family="Helvetica,sans-Serif" font-size="9.00">HAS_SENSOR</text>
</g>
<!-- myagv&#45;3&#45;&gt;myagv&#45;3 -->
<g id="edge9" class="edge">
<title>myagv&#45;3&#45;&gt;myagv&#45;3:lidar</title>
<path fill="none" stroke="#555555" d="M1048.65,-607.05C1099.65,-611.88 1188.5,-610.15 1188.5,-601.84 1188.5,-594.05 1110.41,-592.04 1058.63,-595.8"/>
<polygon fill="#555555" stroke="#555555" points="1058.33,-592.32 1048.65,-596.63 1058.91,-599.29 1058.33,-592.32"/>
<text text-anchor="middle" x="1219" y="-599.64" font-family="Helvetica,sans-Serif" font-size="9.00">HAS_SENSOR</text>
</g>
<!-- r3&#45;preprocess -->
<g id="node15" class="node">
<title>r3&#45;preprocess</title>
<polygon fill="#fff4e5" stroke="#f29900" points="1006,-532.84 923,-532.84 923,-496.84 1006,-496.84 1006,-532.84"/>
<text text-anchor="middle" x="964.5" y="-517.84" font-family="Helvetica,sans-Serif" font-size="10.00">r3&#45;preprocess</text>
<text text-anchor="middle" x="964.5" y="-506.84" font-family="Helvetica,sans-Serif" font-size="10.00">[Preprocess]</text>
</g>
<!-- myagv&#45;3&#45;&gt;r3&#45;preprocess -->
<g id="edge16" class="edge">
<title>myagv&#45;3:camera&#45;&gt;r3&#45;preprocess</title>
<path fill="none" stroke="#555555" d="M988.34,-585.57C985.36,-584.12 982.38,-582.69 979.5,-581.34 961.48,-572.89 949.38,-580 938.5,-563.34 933.92,-556.33 935.68,-548.44 939.92,-541.14"/>
<polygon fill="#555555" stroke="#555555" points="942.83,-543.09 945.81,-532.92 937.14,-539.01 942.83,-543.09"/>
<text text-anchor="middle" x="954" y="-556.14" font-family="Helvetica,sans-Serif" font-size="9.00">FEEDS</text>
</g>
<!-- myagv&#45;3&#45;&gt;r3&#45;preprocess -->
<g id="edge17" class="edge">
<title>myagv&#45;3:imu&#45;&gt;r3&#45;preprocess</title>
<path fill="none" stroke="#555555" d="M1006.06,-583.47C1001.67,-577.19 996.77,-570.01 992.5,-563.34 988.17,-556.58 983.67,-549.15 979.58,-542.21"/>
<polygon fill="#555555" stroke="#555555" points="982.37,-540.05 974.31,-533.17 976.32,-543.58 982.37,-540.05"/>
<text text-anchor="middle" x="1008" y="-556.14" font-family="Helvetica,sans-Serif" font-size="9.00">FEEDS</text>
</g>
<!-- myagv&#45;3&#45;&gt;r3&#45;preprocess -->
<g id="edge18" class="edge">
<title>myagv&#45;3:lidar&#45;&gt;r3&#45;preprocess</title>
<path fill="none" stroke="#555555" d="M1024.95,-583.62C1027.4,-574.15 1028.53,-562.5 1023.5,-553.34 1020.58,-548.02 1016.55,-543.36 1011.96,-539.28"/>
<polygon fill="#555555" stroke="#555555" points="1013.85,-536.32 1003.8,-532.98 1009.57,-541.86 1013.85,-536.32"/>
<text text-anchor="middle" x="1042" y="-556.14" font-family="Helvetica,sans-Serif" font-size="9.00">FEEDS</text>
</g>
<!-- myagv&#45;1::camera -->
<g id="node4" class="node">
<title>myagv&#45;1::camera</title>
<polygon fill="#e3f2fd" stroke="#1e88e5" points="1407,-622.34 1304,-622.34 1304,-581.34 1407,-581.34 1407,-622.34"/>
<text text-anchor="middle" x="1355.5" y="-610.34" font-family="Helvetica,sans-Serif" font-size="10.00">myagv&#45;1::camera</text>
<text text-anchor="middle" x="1355.5" y="-599.34" font-family="Helvetica,sans-Serif" font-size="10.00">[Sensor]</text>
<text text-anchor="middle" x="1355.5" y="-588.34" font-family="Helvetica,sans-Serif" font-size="10.00">hz=15.0</text>
</g>
<!-- myagv&#45;1::imu -->
<g id="node5" class="node">
<title>myagv&#45;1::imu</title>
<polygon fill="#e3f2fd" stroke="#1e88e5" points="1510,-622.34 1425,-622.34 1425,-581.34 1510,-581.34 1510,-622.34"/>
<text text-anchor="middle" x="1467.5" y="-610.34" font-family="Helvetica,sans-Serif" font-size="10.00">myagv&#45;1::imu</text>
<text text-anchor="middle" x="1467.5" y="-599.34" font-family="Helvetica,sans-Serif" font-size="10.00">[Sensor]</text>
<text text-anchor="middle" x="1467.5" y="-588.34" font-family="Helvetica,sans-Serif" font-size="10.00">hz=100.0</text>
</g>
<!-- myagv&#45;1::lidar -->
<g id="node6" class="node">
<title>myagv&#45;1::lidar</title>
<polygon fill="#e3f2fd" stroke="#1e88e5" points="1616.5,-622.34 1528.5,-622.34 1528.5,-581.34 1616.5,-581.34 1616.5,-622.34"/>
<text text-anchor="middle" x="1572.5" y="-610.34" font-family="Helvetica,sans-Serif" font-size="10.00">myagv&#45;1::lidar</text>
<text text-anchor="middle" x="1572.5" y="-599.34" font-family="Helvetica,sans-Serif" font-size="10.00">[Sensor]</text>
<text text-anchor="middle" x="1572.5" y="-588.34" font-family="Helvetica,sans-Serif" font-size="10.00">hz=10.0</text>
</g>
<!-- myagv&#45;2::camera -->
<g id="node7" class="node">
<title>myagv&#45;2::camera</title>
<polygon fill="#e3f2fd" stroke="#1e88e5" points="1738,-622.34 1635,-622.34 1635,-581.34 1738,-581.34 1738,-622.34"/>
<text text-anchor="middle" x="1686.5" y="-610.34" font-family="Helvetica,sans-Serif" font-size="10.00">myagv&#45;2::camera</text>
<text text-anchor="middle" x="1686.5" y="-599.34" font-family="Helvetica,sans-Serif" font-size="10.00">[Sensor]</text>
<text text-anchor="middle" x="1686.5" y="-588.34" font-family="Helvetica,sans-Serif" font-size="10.00">hz=15.0</text>
</g>
<!-- myagv&#45;2::imu -->
<g id="node8" class="node">
<title>myagv&#45;2::imu</title>
<polygon fill="#e3f2fd" stroke="#1e88e5" points="1841,-622.34 1756,-622.34 1756,-581.34 1841,-581.34 1841,-622.34"/>
<text text-anchor="middle" x="1798.5" y="-610.34" font-family="Helvetica,sans-Serif" font-size="10.00">myagv&#45;2::imu</text>
<text text-anchor="middle" x="1798.5" y="-599.34" font-family="Helvetica,sans-Serif" font-size="10.00">[Sensor]</text>
<text text-anchor="middle" x="1798.5" y="-588.34" font-family="Helvetica,sans-Serif" font-size="10.00">hz=100.0</text>
</g>
<!-- myagv&#45;2::lidar -->
<g id="node9" class="node">
<title>myagv&#45;2::lidar</title>
<polygon fill="#e3f2fd" stroke="#1e88e5" points="1947.5,-622.34 1859.5,-622.34 1859.5,-581.34 1947.5,-581.34 1947.5,-622.34"/>
<text text-anchor="middle" x="1903.5" y="-610.34" font-family="Helvetica,sans-Serif" font-size="10.00">myagv&#45;2::lidar</text>
<text text-anchor="middle" x="1903.5" y="-599.34" font-family="Helvetica,sans-Serif" font-size="10.00">[Sensor]</text>
<text text-anchor="middle" x="1903.5" y="-588.34" font-family="Helvetica,sans-Serif" font-size="10.00">hz=10.0</text>
</g>
<!-- myagv&#45;3::camera -->
<g id="node10" class="node">
<title>myagv&#45;3::camera</title>
<polygon fill="#e3f2fd" stroke="#1e88e5" points="2069,-622.34 1966,-622.34 1966,-581.34 2069,-581.34 2069,-622.34"/>
<text text-anchor="middle" x="2017.5" y="-610.34" font-family="Helvetica,sans-Serif" font-size="10.00">myagv&#45;3::camera</text>
<text text-anchor="middle" x="2017.5" y="-599.34" font-family="Helvetica,sans-Serif" font-size="10.00">[Sensor]</text>
<text text-anchor="middle" x="2017.5" y="-588.34" font-family="Helvetica,sans-Serif" font-size="10.00">hz=15.0</text>
</g>
<!-- myagv&#45;3::imu -->
<g id="node11" class="node">
<title>myagv&#45;3::imu</title>
<polygon fill="#e3f2fd" stroke="#1e88e5" points="2172,-622.34 2087,-622.34 2087,-581.34 2172,-581.34 2172,-622.34"/>
<text text-anchor="middle" x="2129.5" y="-610.34" font-family="Helvetica,sans-Serif" font-size="10.00">myagv&#45;3::imu</text>
<text text-anchor="middle" x="2129.5" y="-599.34" font-family="Helvetica,sans-Serif" font-size="10.00">[Sensor]</text>
<text text-anchor="middle" x="2129.5" y="-588.34" font-family="Helvetica,sans-Serif" font-size="10.00">hz=100.0</text>
</g>
<!-- myagv&#45;3::lidar -->
<g id="node12" class="node">
<title>myagv&#45;3::lidar</title>
<polygon fill="#e3f2fd" stroke="#1e88e5" points="2278.5,-622.34 2190.5,-622.34 2190.5,-581.34 2278.5,-581.34 2278.5,-622.34"/>
<text text-anchor="middle" x="2234.5" y="-610.34" font-family="Helvetica,sans-Serif" font-size="10.00">myagv&#45;3::lidar</text>
<text text-anchor="middle" x="2234.5" y="-599.34" font-family="Helvetica,sans-Serif" font-size="10.00">[Sensor]</text>
<text text-anchor="middle" x="2234.5" y="-588.34" font-family="Helvetica,sans-Serif" font-size="10.00">hz=10.0</text>
</g>
<!-- edge&#45;gateway -->
<g id="node19" class="node">
<title>edge&#45;gateway</title>
<polygon fill="#f3e5f5" stroke="#6a1b9a" points="749.5,-435.84 657.5,-435.84 657.5,-399.84 749.5,-399.84 749.5,-435.84"/>
<text text-anchor="middle" x="703.5" y="-420.84" font-family="Helvetica,sans-Serif" font-size="10.00">edge&#45;gateway</text>
<text text-anchor="middle" x="703.5" y="-409.84" font-family="Helvetica,sans-Serif" font-size="10.00">[EdgeGateway]</text>
</g>
<!-- r1&#45;preprocess&#45;&gt;edge&#45;gateway -->
<g id="edge19" class="edge">
<title>r1&#45;preprocess&#45;&gt;edge&#45;gateway</title>
<path fill="none" stroke="#555555" d="M508.05,-497.18C547.92,-481.2 608.25,-457.02 651.33,-439.75"/>
<polygon fill="#555555" stroke="#555555" points="652.81,-442.93 660.79,-435.96 650.21,-436.43 652.81,-442.93"/>
<text text-anchor="middle" x="630" y="-464.14" font-family="Helvetica,sans-Serif" font-size="9.00">SENDS_TO</text>
</g>
<!-- r2&#45;preprocess&#45;&gt;edge&#45;gateway -->
<g id="edge20" class="edge">
<title>r2&#45;preprocess&#45;&gt;edge&#45;gateway</title>
<path fill="none" stroke="#555555" d="M703.5,-496.42C703.5,-482.49 703.5,-462.7 703.5,-446.6"/>
<polygon fill="#555555" stroke="#555555" points="707,-446.15 703.5,-436.15 700,-446.15 707,-446.15"/>
<text text-anchor="middle" x="728" y="-464.14" font-family="Helvetica,sans-Serif" font-size="9.00">SENDS_TO</text>
</g>
<!-- r3&#45;preprocess&#45;&gt;edge&#45;gateway -->
<g id="edge21" class="edge">
<title>r3&#45;preprocess&#45;&gt;edge&#45;gateway</title>
<path fill="none" stroke="#555555" d="M922.86,-498.68C878.6,-482.57 808.38,-457.02 759.35,-439.17"/>
<polygon fill="#555555" stroke="#555555" points="760.43,-435.84 749.84,-435.71 758.04,-442.42 760.43,-435.84"/>
<text text-anchor="middle" x="881" y="-464.14" font-family="Helvetica,sans-Serif" font-size="9.00">SENDS_TO</text>
</g>
<!-- r1&#45;control -->
<g id="node16" class="node">
<title>r1&#45;control</title>
<polygon fill="#fff4e5" stroke="#f29900" points="141,-247.36 58,-247.36 58,-206.36 141,-206.36 141,-247.36"/>
<text text-anchor="middle" x="99.5" y="-235.36" font-family="Helvetica,sans-Serif" font-size="10.00">r1&#45;control</text>
<text text-anchor="middle" x="99.5" y="-224.36" font-family="Helvetica,sans-Serif" font-size="10.00">[ControlLoop]</text>
<text text-anchor="middle" x="99.5" y="-213.36" font-family="Helvetica,sans-Serif" font-size="10.00">hz=10.0</text>
</g>
<!-- mongodb -->
<g id="node28" class="node">
<title>mongodb</title>
<path fill="#efebe9" stroke="#5d4037" d="M330,-154.58C330,-157.43 306.47,-159.74 277.5,-159.74 248.53,-159.74 225,-157.43 225,-154.58 225,-154.58 225,-108.15 225,-108.15 225,-105.3 248.53,-102.99 277.5,-102.99 306.47,-102.99 330,-105.3 330,-108.15 330,-108.15 330,-154.58 330,-154.58"/>
<path fill="none" stroke="#5d4037" d="M330,-154.58C330,-151.74 306.47,-149.42 277.5,-149.42 248.53,-149.42 225,-151.74 225,-154.58"/>
<text text-anchor="middle" x="277.5" y="-139.87" font-family="Helvetica,sans-Serif" font-size="10.00">mongodb</text>
<text text-anchor="middle" x="277.5" y="-128.87" font-family="Helvetica,sans-Serif" font-size="10.00">[Database]</text>
<text text-anchor="middle" x="277.5" y="-117.87" font-family="Helvetica,sans-Serif" font-size="10.00">engine=MongoDB</text>
</g>
<!-- r1&#45;control&#45;&gt;mongodb -->
<g id="edge41" class="edge">
<title>r1&#45;control&#45;&gt;mongodb</title>
<path fill="none" stroke="#555555" d="M125.24,-206.28C137.88,-197.16 153.58,-186.53 168.5,-178.36 169.78,-177.66 191.49,-168.48 215.21,-158.5"/>
<polygon fill="#555555" stroke="#555555" points="216.85,-161.61 224.71,-154.51 214.14,-155.15 216.85,-161.61"/>
<text text-anchor="middle" x="194.5" y="-181.16" font-family="Helvetica,sans-Serif" font-size="9.00">WRITES_TO</text>
</g>
<!-- neo4j -->
<g id="node29" class="node">
<title>neo4j</title>
<path fill="#efebe9" stroke="#5d4037" d="M425.5,-51.4C425.5,-54.25 406.23,-56.56 382.5,-56.56 358.77,-56.56 339.5,-54.25 339.5,-51.4 339.5,-51.4 339.5,-4.97 339.5,-4.97 339.5,-2.12 358.77,0.19 382.5,0.19 406.23,0.19 425.5,-2.12 425.5,-4.97 425.5,-4.97 425.5,-51.4 425.5,-51.4"/>
<path fill="none" stroke="#5d4037" d="M425.5,-51.4C425.5,-48.56 406.23,-46.25 382.5,-46.25 358.77,-46.25 339.5,-48.56 339.5,-51.4"/>
<text text-anchor="middle" x="382.5" y="-36.69" font-family="Helvetica,sans-Serif" font-size="10.00">neo4j</text>
<text text-anchor="middle" x="382.5" y="-25.69" font-family="Helvetica,sans-Serif" font-size="10.00">[GraphDB]</text>
<text text-anchor="middle" x="382.5" y="-14.69" font-family="Helvetica,sans-Serif" font-size="10.00">engine=Neo4j</text>
</g>
<!-- r1&#45;control&#45;&gt;neo4j -->
<g id="edge44" class="edge">
<title>r1&#45;control&#45;&gt;neo4j</title>
<path fill="none" stroke="#555555" d="M91.85,-206.27C82.71,-179.18 71.64,-130.44 97.5,-102.38 138.15,-58.27 327.11,-125.6 366.5,-80.38"/>
<path fill="none" stroke="#555555" d="M366.5,-78.38C369.52,-74.81 371.97,-70.66 373.96,-66.31"/>
<polygon fill="#555555" stroke="#555555" points="377.36,-67.22 377.63,-56.63 370.81,-64.74 377.36,-67.22"/>
<text text-anchor="middle" x="123.5" y="-129.17" font-family="Helvetica,sans-Serif" font-size="9.00">WRITES_TO</text>
</g>
<!-- r2&#45;control -->
<g id="node17" class="node">
<title>r2&#45;control</title>
<polygon fill="#fff4e5" stroke="#f29900" points="348,-247.36 265,-247.36 265,-206.36 348,-206.36 348,-247.36"/>
<text text-anchor="middle" x="306.5" y="-235.36" font-family="Helvetica,sans-Serif" font-size="10.00">r2&#45;control</text>
<text text-anchor="middle" x="306.5" y="-224.36" font-family="Helvetica,sans-Serif" font-size="10.00">[ControlLoop]</text>
<text text-anchor="middle" x="306.5" y="-213.36" font-family="Helvetica,sans-Serif" font-size="10.00">hz=10.0</text>
</g>
<!-- r2&#45;control&#45;&gt;mongodb -->
<g id="edge42" class="edge">
<title>r2&#45;control&#45;&gt;mongodb</title>
<path fill="none" stroke="#555555" d="M295.82,-206.01C293.13,-200.42 290.46,-194.25 288.5,-188.36 286.56,-182.52 284.91,-176.21 283.53,-170.01"/>
<polygon fill="#555555" stroke="#555555" points="286.87,-168.88 281.45,-159.78 280.01,-170.28 286.87,-168.88"/>
<text text-anchor="middle" x="314.5" y="-181.16" font-family="Helvetica,sans-Serif" font-size="9.00">WRITES_TO</text>
</g>
<!-- r2&#45;control&#45;&gt;neo4j -->
<g id="edge45" class="edge">
<title>r2&#45;control&#45;&gt;neo4j</title>
<path fill="none" stroke="#555555" d="M327.6,-206.26C332.43,-200.87 337.13,-194.73 340.5,-188.36 363.57,-144.72 334.14,-117.66 366.5,-80.38"/>
<text text-anchor="middle" x="379.5" y="-129.17" font-family="Helvetica,sans-Serif" font-size="9.00">WRITES_TO</text>
</g>
<!-- r3&#45;control -->
<g id="node18" class="node">
<title>r3&#45;control</title>
<polygon fill="#fff4e5" stroke="#f29900" points="247,-247.36 164,-247.36 164,-206.36 247,-206.36 247,-247.36"/>
<text text-anchor="middle" x="205.5" y="-235.36" font-family="Helvetica,sans-Serif" font-size="10.00">r3&#45;control</text>
<text text-anchor="middle" x="205.5" y="-224.36" font-family="Helvetica,sans-Serif" font-size="10.00">[ControlLoop]</text>
<text text-anchor="middle" x="205.5" y="-213.36" font-family="Helvetica,sans-Serif" font-size="10.00">hz=10.0</text>
</g>
<!-- r3&#45;control&#45;&gt;mongodb -->
<g id="edge43" class="edge">
<title>r3&#45;control&#45;&gt;mongodb</title>
<path fill="none" stroke="#555555" d="M214.18,-206.09C218.5,-197.23 224.15,-186.88 230.5,-178.36 233.34,-174.55 236.49,-170.77 239.78,-167.11"/>
<polygon fill="#555555" stroke="#555555" points="242.38,-169.45 246.68,-159.77 237.28,-164.66 242.38,-169.45"/>
<text text-anchor="middle" x="256.5" y="-181.16" font-family="Helvetica,sans-Serif" font-size="9.00">WRITES_TO</text>
</g>
<!-- r3&#45;control&#45;&gt;neo4j -->
<g id="edge46" class="edge">
<title>r3&#45;control&#45;&gt;neo4j</title>
<path fill="none" stroke="#555555" d="M187.96,-205.91C166.71,-179.28 136.88,-132.04 163.5,-102.38 193.81,-68.61 336.57,-114.48 366.5,-80.38"/>
<text text-anchor="middle" x="189.5" y="-129.17" font-family="Helvetica,sans-Serif" font-size="9.00">WRITES_TO</text>
</g>
<!-- topic.telemetry.raw -->
<g id="node20" class="node">
<title>topic.telemetry.raw</title>
<ellipse fill="#eceff1" stroke="#455a64" cx="742.5" cy="-322.35" rx="103.89" ry="28.98"/>
<text text-anchor="middle" x="742.5" y="-330.85" font-family="Helvetica,sans-Serif" font-size="10.00">topic.telemetry.raw</text>
<text text-anchor="middle" x="742.5" y="-319.85" font-family="Helvetica,sans-Serif" font-size="10.00">[Topic]</text>
<text text-anchor="middle" x="742.5" y="-308.85" font-family="Helvetica,sans-Serif" font-size="10.00">name=topic.telemetry.raw</text>
</g>
<!-- edge&#45;gateway&#45;&gt;topic.telemetry.raw -->
<g id="edge22" class="edge">
<title>edge&#45;gateway&#45;&gt;topic.telemetry.raw</title>
<path fill="none" stroke="#555555" d="M710.65,-399.69C715.18,-388.83 721.22,-374.35 726.83,-360.93"/>
<polygon fill="#555555" stroke="#555555" points="730.18,-361.98 730.8,-351.4 723.72,-359.28 730.18,-361.98"/>
<text text-anchor="middle" x="756.5" y="-372.14" font-family="Helvetica,sans-Serif" font-size="9.00">PUBLISHES_TO</text>
</g>
<!-- topic.infer.req -->
<g id="node21" class="node">
<title>topic.infer.req</title>
<ellipse fill="#eceff1" stroke="#455a64" cx="535.5" cy="-322.35" rx="84.71" ry="28.98"/>
<text text-anchor="middle" x="535.5" y="-330.85" font-family="Helvetica,sans-Serif" font-size="10.00">topic.infer.req</text>
<text text-anchor="middle" x="535.5" y="-319.85" font-family="Helvetica,sans-Serif" font-size="10.00">[Topic]</text>
<text text-anchor="middle" x="535.5" y="-308.85" font-family="Helvetica,sans-Serif" font-size="10.00">name=topic.infer.req</text>
</g>
<!-- edge&#45;gateway&#45;&gt;topic.infer.req -->
<g id="edge23" class="edge">
<title>edge&#45;gateway&#45;&gt;topic.infer.req</title>
<path fill="none" stroke="#555555" d="M672.69,-399.69C648.92,-386.47 615.51,-367.88 587.62,-352.35"/>
<polygon fill="#555555" stroke="#555555" points="589.21,-349.23 578.77,-347.43 585.81,-355.35 589.21,-349.23"/>
<text text-anchor="middle" x="668.5" y="-372.14" font-family="Helvetica,sans-Serif" font-size="9.00">PUBLISHES_TO</text>
</g>
<!-- stream&#45;processor -->
<g id="node30" class="node">
<title>stream&#45;processor</title>
<polygon fill="#f1f8e9" stroke="#33691e" points="499,-247.36 378,-247.36 378,-243.36 374,-243.36 374,-239.36 378,-239.36 378,-214.36 374,-214.36 374,-210.36 378,-210.36 378,-206.36 499,-206.36 499,-247.36"/>
<polyline fill="none" stroke="#33691e" points="378,-243.36 382,-243.36 382,-239.36 378,-239.36 "/>
<polyline fill="none" stroke="#33691e" points="378,-214.36 382,-214.36 382,-210.36 378,-210.36 "/>
<text text-anchor="middle" x="438.5" y="-235.36" font-family="Helvetica,sans-Serif" font-size="10.00">stream&#45;processor</text>
<text text-anchor="middle" x="438.5" y="-224.36" font-family="Helvetica,sans-Serif" font-size="10.00">[StreamProcessor]</text>
<text text-anchor="middle" x="438.5" y="-213.36" font-family="Helvetica,sans-Serif" font-size="10.00">engine=FlinkOrSpark</text>
</g>
<!-- topic.telemetry.raw&#45;&gt;stream&#45;processor -->
<g id="edge33" class="edge">
<title>topic.telemetry.raw&#45;&gt;stream&#45;processor</title>
<path fill="none" stroke="#555555" d="M674.28,-300.37C624.96,-285.2 558.53,-264.77 508.75,-249.46"/>
<polygon fill="#555555" stroke="#555555" points="509.62,-246.07 499.03,-246.47 507.56,-252.76 509.62,-246.07"/>
<text text-anchor="middle" x="606" y="-268.16" font-family="Helvetica,sans-Serif" font-size="9.00">FEEDS</text>
</g>
<!-- topic.infer.resp -->
<g id="node22" class="node">
<title>topic.infer.resp</title>
<ellipse fill="#eceff1" stroke="#455a64" cx="231.5" cy="-322.35" rx="88.28" ry="28.98"/>
<text text-anchor="middle" x="231.5" y="-330.85" font-family="Helvetica,sans-Serif" font-size="10.00">topic.infer.resp</text>
<text text-anchor="middle" x="231.5" y="-319.85" font-family="Helvetica,sans-Serif" font-size="10.00">[Topic]</text>
<text text-anchor="middle" x="231.5" y="-308.85" font-family="Helvetica,sans-Serif" font-size="10.00">name=topic.infer.resp</text>
</g>
<!-- topic.infer.resp&#45;&gt;r1&#45;control -->
<g id="edge30" class="edge">
<title>topic.infer.resp&#45;&gt;r1&#45;control</title>
<path fill="none" stroke="#555555" d="M195.43,-295.8C176.76,-282.58 154.04,-266.49 135.4,-253.29"/>
<polygon fill="#555555" stroke="#555555" points="137.33,-250.37 127.15,-247.44 133.29,-256.08 137.33,-250.37"/>
<text text-anchor="middle" x="181" y="-268.16" font-family="Helvetica,sans-Serif" font-size="9.00">FEEDS</text>
</g>
<!-- topic.infer.resp&#45;&gt;r2&#45;control -->
<g id="edge31" class="edge">
<title>topic.infer.resp&#45;&gt;r2&#45;control</title>
<path fill="none" stroke="#555555" d="M253.39,-294.06C263.09,-281.97 274.48,-267.77 284.22,-255.63"/>
<polygon fill="#555555" stroke="#555555" points="287.13,-257.59 290.66,-247.6 281.67,-253.21 287.13,-257.59"/>
<text text-anchor="middle" x="292" y="-268.16" font-family="Helvetica,sans-Serif" font-size="9.00">FEEDS</text>
</g>
<!-- topic.infer.resp&#45;&gt;r3&#45;control -->
<g id="edge32" class="edge">
<title>topic.infer.resp&#45;&gt;r3&#45;control</title>
<path fill="none" stroke="#555555" d="M223.7,-293.3C220.56,-282.02 216.94,-268.99 213.76,-257.55"/>
<polygon fill="#555555" stroke="#555555" points="217.04,-256.28 210.98,-247.58 210.29,-258.15 217.04,-256.28"/>
<text text-anchor="middle" x="234" y="-268.16" font-family="Helvetica,sans-Serif" font-size="9.00">FEEDS</text>
</g>
<!-- topic.infer.resp&#45;&gt;stream&#45;processor -->
<g id="edge36" class="edge">
<title>topic.infer.resp&#45;&gt;stream&#45;processor</title>
<path fill="none" stroke="#555555" d="M282.14,-298.48C313.62,-284.26 354.02,-266.01 385.87,-251.63"/>
<polygon fill="#555555" stroke="#555555" points="387.37,-254.79 395.04,-247.49 384.48,-248.41 387.37,-254.79"/>
<text text-anchor="middle" x="370" y="-268.16" font-family="Helvetica,sans-Serif" font-size="9.00">FEEDS</text>
</g>
<!-- topic.ops.alerts -->
<g id="node23" class="node">
<title>topic.ops.alerts</title>
<ellipse fill="#eceff1" stroke="#455a64" cx="615.5" cy="-131.37" rx="90.52" ry="28.98"/>
<text text-anchor="middle" x="615.5" y="-139.87" font-family="Helvetica,sans-Serif" font-size="10.00">topic.ops.alerts</text>
<text text-anchor="middle" x="615.5" y="-128.87" font-family="Helvetica,sans-Serif" font-size="10.00">[Topic]</text>
<text text-anchor="middle" x="615.5" y="-117.87" font-family="Helvetica,sans-Serif" font-size="10.00">name=topic.ops.alerts</text>
</g>
<!-- topic.ops.alerts&#45;&gt;neo4j -->
<g id="edge40" class="edge">
<title>topic.ops.alerts&#45;&gt;neo4j</title>
<path fill="none" stroke="#555555" d="M563.21,-107.66C524.99,-91.06 473.36,-68.64 435.07,-52.02"/>
<polygon fill="#555555" stroke="#555555" points="436.21,-48.7 425.64,-47.92 433.42,-55.12 436.21,-48.7"/>
<text text-anchor="middle" x="521" y="-77.17" font-family="Helvetica,sans-Serif" font-size="9.00">FEEDS</text>
</g>
<!-- load&#45;balancer -->
<g id="node24" class="node">
<title>load&#45;balancer</title>
<polygon fill="#f3e5f5" stroke="#8e24aa" points="401,-535.34 298,-535.34 298,-494.34 401,-494.34 401,-535.34"/>
<text text-anchor="middle" x="349.5" y="-523.34" font-family="Helvetica,sans-Serif" font-size="10.00">load&#45;balancer</text>
<text text-anchor="middle" x="349.5" y="-512.34" font-family="Helvetica,sans-Serif" font-size="10.00">[LoadBalancer]</text>
<text text-anchor="middle" x="349.5" y="-501.34" font-family="Helvetica,sans-Serif" font-size="10.00">policy=least&#45;load</text>
</g>
<!-- load&#45;balancer&#45;&gt;topic.infer.req -->
<g id="edge24" class="edge">
<title>load&#45;balancer&#45;&gt;topic.infer.req</title>
<path fill="none" stroke="#555555" d="M511.5,-465.34C533.6,-435.65 538.17,-392.81 538.09,-361.97"/>
<polygon fill="#555555" stroke="#555555" points="541.58,-361.53 537.89,-351.59 534.58,-361.66 541.58,-361.53"/>
<text text-anchor="middle" x="576.5" y="-415.64" font-family="Helvetica,sans-Serif" font-size="9.00">CONSUMES_FROM</text>
</g>
<!-- inference&#45;service&#45;a -->
<g id="node25" class="node">
<title>inference&#45;service&#45;a</title>
<polygon fill="#e8f5e9" stroke="#2e7d32" points="460,-438.34 239,-438.34 239,-397.34 460,-397.34 460,-438.34"/>
<text text-anchor="middle" x="349.5" y="-426.34" font-family="Helvetica,sans-Serif" font-size="10.00">inference&#45;service&#45;a</text>
<text text-anchor="middle" x="349.5" y="-415.34" font-family="Helvetica,sans-Serif" font-size="10.00">[InferenceService]</text>
<text text-anchor="middle" x="349.5" y="-404.34" font-family="Helvetica,sans-Serif" font-size="10.00">name=inference&#45;service&#45;a, node=cloud&#45;a</text>
</g>
<!-- load&#45;balancer&#45;&gt;inference&#45;service&#45;a -->
<g id="edge25" class="edge">
<title>load&#45;balancer&#45;&gt;inference&#45;service&#45;a</title>
<path fill="none" stroke="#555555" d="M349.5,-494.16C349.5,-481.04 349.5,-463.55 349.5,-448.72"/>
<polygon fill="#555555" stroke="#555555" points="353,-448.5 349.5,-438.5 346,-448.5 353,-448.5"/>
<text text-anchor="middle" x="376.5" y="-464.14" font-family="Helvetica,sans-Serif" font-size="9.00">ROUTES_TO</text>
</g>
<!-- inference&#45;service&#45;b -->
<g id="node26" class="node">
<title>inference&#45;service&#45;b</title>
<polygon fill="#e8f5e9" stroke="#2e7d32" points="221,-438.34 0,-438.34 0,-397.34 221,-397.34 221,-438.34"/>
<text text-anchor="middle" x="110.5" y="-426.34" font-family="Helvetica,sans-Serif" font-size="10.00">inference&#45;service&#45;b</text>
<text text-anchor="middle" x="110.5" y="-415.34" font-family="Helvetica,sans-Serif" font-size="10.00">[InferenceService]</text>
<text text-anchor="middle" x="110.5" y="-404.34" font-family="Helvetica,sans-Serif" font-size="10.00">name=inference&#45;service&#45;b, node=cloud&#45;b</text>
</g>
<!-- load&#45;balancer&#45;&gt;inference&#45;service&#45;b -->
<g id="edge26" class="edge">
<title>load&#45;balancer&#45;&gt;inference&#45;service&#45;b</title>
<path fill="none" stroke="#555555" d="M300.27,-494.27C262.19,-479.14 209.35,-458.13 169.09,-442.13"/>
<polygon fill="#555555" stroke="#555555" points="170.25,-438.83 159.67,-438.38 167.67,-445.33 170.25,-438.83"/>
<text text-anchor="middle" x="278.5" y="-464.14" font-family="Helvetica,sans-Serif" font-size="9.00">ROUTES_TO</text>
</g>
<!-- load&#45;balancer&#45;&gt;stream&#45;processor -->
<g id="edge37" class="edge">
<title>load&#45;balancer&#45;&gt;stream&#45;processor</title>
<path fill="none" stroke="#555555" d="M401.07,-498.8C406.28,-497.29 411.49,-495.78 416.5,-494.34 458.68,-482.21 485.11,-502.41 511.5,-467.34"/>
<path fill="none" stroke="#555555" d="M511.5,-465.34C547.25,-417.83 464.21,-406.29 441.5,-351.34 427.54,-317.57 408.93,-305.28 422.5,-271.36"/>
<text text-anchor="middle" x="475" y="-372.14" font-family="Helvetica,sans-Serif" font-size="9.00">FEEDS</text>
</g>
<!-- inference&#45;service&#45;a&#45;&gt;topic.infer.resp -->
<g id="edge28" class="edge">
<title>inference&#45;service&#45;a&#45;&gt;topic.infer.resp</title>
<path fill="none" stroke="#555555" d="M324.76,-397.24C309.53,-385.17 289.62,-369.4 272.12,-355.53"/>
<polygon fill="#555555" stroke="#555555" points="274.28,-352.78 264.27,-349.31 269.93,-358.27 274.28,-352.78"/>
<text text-anchor="middle" x="335.5" y="-372.14" font-family="Helvetica,sans-Serif" font-size="9.00">PUBLISHES_TO</text>
</g>
<!-- inference&#45;service&#45;b&#45;&gt;topic.infer.resp -->
<g id="edge29" class="edge">
<title>inference&#45;service&#45;b&#45;&gt;topic.infer.resp</title>
<path fill="none" stroke="#555555" d="M135.87,-397.24C151.49,-385.17 171.9,-369.4 189.85,-355.53"/>
<polygon fill="#555555" stroke="#555555" points="192.12,-358.2 197.9,-349.31 187.84,-352.66 192.12,-358.2"/>
<text text-anchor="middle" x="205.5" y="-372.14" font-family="Helvetica,sans-Serif" font-size="9.00">PUBLISHES_TO</text>
</g>
<!-- inference&#45;service&#45;b&#45;&gt;stream&#45;processor -->
<g id="edge38" class="edge">
<title>inference&#45;service&#45;b&#45;&gt;stream&#45;processor</title>
<path fill="none" stroke="#555555" d="M182.11,-397.27C202.03,-391.65 223.65,-385.4 243.5,-379.34 281.54,-367.72 295.53,-373.59 328.5,-351.34 356.47,-332.47 350.89,-314.1 377.5,-293.36 395.06,-279.67 413.13,-291.55 422.5,-271.36"/>
<path fill="none" stroke="#555555" d="M422.5,-269.36C424.08,-265.41 425.72,-261.23 427.33,-257.11"/>
<polygon fill="#555555" stroke="#555555" points="430.61,-258.33 430.95,-247.74 424.08,-255.8 430.61,-258.33"/>
<text text-anchor="middle" x="393" y="-320.15" font-family="Helvetica,sans-Serif" font-size="9.00">FEEDS</text>
</g>
<!-- workload&#45;b -->
<g id="node27" class="node">
<title>workload&#45;b</title>
<polygon fill="#ffebee" stroke="#c62828" points="174.5,-535.34 46.5,-535.34 46.5,-494.34 174.5,-494.34 174.5,-535.34"/>
<text text-anchor="middle" x="110.5" y="-523.34" font-family="Helvetica,sans-Serif" font-size="10.00">workload&#45;b</text>
<text text-anchor="middle" x="110.5" y="-512.34" font-family="Helvetica,sans-Serif" font-size="10.00">[BackgroundWorkload]</text>
<text text-anchor="middle" x="110.5" y="-501.34" font-family="Helvetica,sans-Serif" font-size="10.00">name=workload&#45;b</text>
</g>
<!-- workload&#45;b&#45;&gt;inference&#45;service&#45;b -->
<g id="edge27" class="edge">
<title>workload&#45;b&#45;&gt;inference&#45;service&#45;b</title>
<path fill="none" stroke="#c62828" stroke-dasharray="5,2" d="M110.5,-494.16C110.5,-481.04 110.5,-463.55 110.5,-448.72"/>
<polygon fill="#c62828" stroke="#c62828" points="114,-448.5 110.5,-438.5 107,-448.5 114,-448.5"/>
<text text-anchor="middle" x="153" y="-469.14" font-family="Helvetica,sans-Serif" font-size="9.00">INTERFERES_WITH</text>
<text text-anchor="middle" x="153" y="-459.14" font-family="Helvetica,sans-Serif" font-size="9.00">cpu_contention_io</text>
</g>
<!-- stream&#45;processor&#45;&gt;topic.ops.alerts -->
<g id="edge39" class="edge">
<title>stream&#45;processor&#45;&gt;topic.ops.alerts</title>
<path fill="none" stroke="#555555" d="M475.61,-206.26C500.29,-193.22 533.13,-175.87 560.79,-161.26"/>
<polygon fill="#555555" stroke="#555555" points="562.75,-164.19 569.95,-156.42 559.48,-158 562.75,-164.19"/>
<text text-anchor="middle" x="560.5" y="-181.16" font-family="Helvetica,sans-Serif" font-size="9.00">PUBLISHES_TO</text>
</g>
<!-- stream&#45;processor&#45;&gt;mongodb -->
<g id="edge34" class="edge">
<title>stream&#45;processor&#45;&gt;mongodb</title>
<path fill="none" stroke="#555555" d="M404.75,-206.26C383.4,-193.86 355.33,-177.56 330.99,-163.43"/>
<polygon fill="#555555" stroke="#555555" points="332.62,-160.32 322.21,-158.33 329.1,-166.38 332.62,-160.32"/>
<text text-anchor="middle" x="398.5" y="-181.16" font-family="Helvetica,sans-Serif" font-size="9.00">WRITES_TO</text>
</g>
<!-- stream&#45;processor&#45;&gt;neo4j -->
<g id="edge35" class="edge">
<title>stream&#45;processor&#45;&gt;neo4j</title>
<path fill="none" stroke="#555555" d="M441.65,-206.01C444.69,-179.49 445.91,-132.37 422.5,-102.38 406.05,-81.29 349.09,-100.67 366.5,-80.38"/>
<text text-anchor="middle" x="467.5" y="-129.17" font-family="Helvetica,sans-Serif" font-size="9.00">WRITES_TO</text>
</g>
</g>
</svg>
